<svg width="405" height="186" viewBox="0 0 405 186" fill="none" xmlns="http://www.w3.org/2000/svg">
<path d="M84.07 54.63C84.01 60.19 83.62 74.8 73.02 88.39C71.86 89.87 59.74 104.94 39.3 107.96C34.91 108.61 32.72 108.93 29.88 108.33C12.75 104.67 4.13998 75.13 3.80998 54.29C3.54998 38.44 7.76997 8.94998 26.1 1.89998C30.54 0.189982 34.39 0.339979 37.98 0.489979C61.19 1.40998 74.95 22.47 76.06 24.23C84.1 36.95 84.12 49.6 84.07 54.63Z" fill="#1F1E5E"/>
<path d="M32.91 0.459961H0V108.67H32.91V0.459961Z" fill="#1F1E5E"/>
<path d="M143.29 109.04C173.401 109.04 197.81 84.6306 197.81 54.52C197.81 24.4094 173.401 0 143.29 0C113.179 0 88.77 24.4094 88.77 54.52C88.77 84.6306 113.179 109.04 143.29 109.04Z" fill="#1F1E5E"/>
<path d="M288.51 54.63C288.45 60.19 288.06 74.8 277.46 88.39C276.3 89.87 264.18 104.94 243.74 107.96C239.35 108.61 237.16 108.93 234.32 108.33C217.19 104.67 208.58 75.13 208.25 54.29C207.99 38.44 212.21 8.94998 230.54 1.89998C234.98 0.189982 238.83 0.339979 242.42 0.489979C265.63 1.40998 279.39 22.47 280.5 24.23C288.55 36.95 288.57 49.6 288.51 54.63Z" fill="#1F1E5E"/>
<path d="M237.36 0.459961H204.45V108.67H237.36V0.459961Z" fill="#1F1E5E"/>
<path d="M347.74 109.04C377.851 109.04 402.26 84.6306 402.26 54.52C402.26 24.4094 377.851 0 347.74 0C317.629 0 293.22 24.4094 293.22 54.52C293.22 84.6306 317.629 109.04 347.74 109.04Z" fill="#1F1E5E"/>
<path d="M206.23 145.92V135.53H251.69V145.92H206.23ZM218.24 161.04V120.68H229.65V161.04H218.24ZM241.11 185.62C233.04 185.62 227.21 183.98 223.62 180.7C220.03 177.42 218.24 172.18 218.24 164.97V157.78H229.65V164.04C229.65 167.84 230.61 170.61 232.53 172.34C234.45 174.07 237.62 174.94 242.04 174.94C243.49 174.94 245.06 174.86 246.73 174.69C248.4 174.52 250.3 174.3 252.44 174.02L253.55 184.5C251.48 184.87 249.44 185.15 247.45 185.33C245.45 185.53 243.34 185.62 241.11 185.62Z" fill="#1F1E5E"/>
<path d="M286.23 185.62C277.79 185.62 271.26 183.42 266.66 179.01C262.05 174.6 259.75 168.27 259.75 160.01C259.75 151.97 261.71 145.72 265.62 141.27C269.53 136.82 275.04 134.59 282.16 134.59C289.03 134.59 294.34 136.63 298.09 140.71C301.85 144.79 303.73 150.71 303.73 158.48C303.73 160.74 303.64 162.86 303.45 164.84H268.01V156.58H292.78C292.78 152.84 291.85 149.96 290 147.95C288.14 145.94 285.56 144.93 282.25 144.93C278.63 144.93 275.82 146.2 273.81 148.73C271.8 151.27 270.8 154.87 270.8 159.54C270.8 164.58 272.24 168.42 275.11 171.07C277.99 173.71 282.07 175.04 287.36 175.04C289.53 175.04 291.65 174.92 293.74 174.69C295.83 174.46 297.95 174.14 300.12 173.74L301.33 184.32C298.27 184.88 295.48 185.23 292.96 185.39C290.41 185.55 288.18 185.62 286.23 185.62Z" fill="#1F1E5E"/>
<path d="M338.44 185.62C329.72 185.62 322.99 183.42 318.24 179.01C313.49 174.6 311.12 168.27 311.12 160.01C311.12 151.97 313.32 145.72 317.71 141.27C322.1 136.82 328.38 134.59 336.54 134.59C341.52 134.59 345.78 135.54 349.32 137.44C352.86 139.34 355.37 142.02 356.86 145.49L348.37 152.12C347.01 149.92 345.26 148.23 343.13 147.04C341 145.85 338.68 145.25 336.17 145.25C331.96 145.25 328.69 146.49 326.34 148.96C323.99 151.43 322.81 154.96 322.81 159.54C322.81 164.55 324.26 168.37 327.15 171C330.04 173.63 334.18 174.94 339.56 174.94C341.82 174.94 344.07 174.83 346.31 174.61C348.55 174.39 350.74 174.1 352.87 173.73L354.08 184.21C351.58 184.77 348.98 185.14 346.29 185.32C343.6 185.5 340.98 185.62 338.44 185.62Z" fill="#1F1E5E"/>
<path d="M363.52 184.7V115.12H374.98V184.7H363.52ZM393.07 184.7V154.08C393.07 151.17 392.39 148.94 391.03 147.38C389.67 145.82 387.75 145.04 385.28 145.04C378.41 145.04 374.98 149.51 374.98 158.45L372.1 144.44H376.09C376.46 141.13 377.61 138.66 379.55 137.04C381.48 135.42 384.37 134.6 388.2 134.6C393.4 134.6 397.41 136.18 400.26 139.33C403.1 142.48 404.53 146.94 404.53 152.69V184.7H393.07Z" fill="#1F1E5E"/>
</svg>
